<?xml version="1.0" encoding="UTF-8" standalone="no"?>
<!DOCTYPE svg PUBLIC "-//W3C//DTD SVG 1.1//EN" "http://www.w3.org/Graphics/SVG/1.1/DTD/svg11.dtd">
<svg width="100%" height="100%" viewBox="0 0 600 144" version="1.1" xmlns="http://www.w3.org/2000/svg" xmlns:xlink="http://www.w3.org/1999/xlink" xml:space="preserve" xmlns:serif="http://www.serif.com/" style="fill-rule:evenodd;clip-rule:evenodd;stroke-linejoin:round;stroke-miterlimit:2;">
    <g transform="matrix(0.742325,0,0,0.742325,-112.904,-302.599)">
        <path d="M611.589,557.263C606.718,586.538 583.207,601.304 555.45,599.827C539.925,599.001 526.306,593.291 515.633,581.53C510.831,576.239 510.697,572.508 515.223,568.743C521.625,563.416 525.586,563.499 530.106,569.054C539.473,580.565 557.02,584.844 572.569,579.409C585.294,574.96 592.714,563.232 592.764,547.48C592.772,544.991 592.765,542.502 592.765,538.849C581.185,550.197 567.937,554.73 552.741,553.193C537.765,551.679 525.311,545.288 516.052,533.288C499.909,512.366 502.252,481.683 521.051,462.964C537.55,446.533 569.276,440.403 592.004,461.582C593.218,460.984 592.726,459.836 592.767,458.934C593.113,451.41 595.364,449.329 603.033,449.537C610.021,449.727 612.306,451.894 612.316,458.919C612.359,489.405 612.328,519.891 612.277,550.377C612.273,552.529 611.889,554.679 611.589,557.263M546.69,532.911C551.241,534.895 556.051,535.027 560.892,534.851C574.507,534.359 585.734,526.19 590.497,513.348C595.549,499.725 592.206,485.023 581.846,475.304C572.551,466.584 557.207,463.989 545.499,469.397C531.767,475.741 525.387,487.124 525.502,501.737C525.615,516.098 532.56,526.707 546.69,532.911Z" style="fill:rgb(148,163,184);fill-rule:nonzero;"/>
    </g>
    <g transform="matrix(0.742325,0,0,0.742325,-112.904,-302.599)">
        <path d="M488.33,531.996C488.333,536.325 488.427,540.159 488.314,543.986C488.144,549.758 485.45,552.216 479.446,552.295C471.908,552.394 469.187,550.328 468.763,544.255C468.675,542.991 469.213,541.605 467.837,540.096C455.523,551.973 440.678,555.426 424.163,552.455C411.498,550.177 401.178,543.77 393.301,533.673C377.203,513.042 379.449,480.547 397.908,462.781C417.062,444.346 448.524,442.411 467.85,461.579C468.745,461.449 468.727,460.727 468.765,460.094C469.343,450.513 473.436,447.429 482.793,449.716C487.078,450.763 488.361,453.953 488.349,458.048C488.303,474.703 488.326,491.358 488.325,508.013C488.325,515.841 488.327,523.669 488.33,531.996M424.19,468.48C414.799,472.099 408.3,478.589 404.858,488.064C400.01,501.412 402.031,513.782 411.26,524.453C419.792,534.317 431.205,536.924 443.515,533.977C461.914,529.573 472.567,510.619 467.645,492.133C462.5,472.813 444.553,462.772 424.19,468.48Z" style="fill:rgb(148,163,184);fill-rule:nonzero;"/>
    </g>
    <g transform="matrix(0.742325,0,0,0.742325,-112.904,-302.599)">
        <path d="M835.793,525.957C832.99,519.029 831.882,512.141 831.832,505.115C831.724,489.96 831.766,474.805 831.791,459.65C831.803,452.201 834.434,449.359 841.342,449.146C848.561,448.923 851.878,451.749 851.985,459.178C852.211,474.829 852.123,490.486 852.106,506.14C852.098,513.16 853.518,519.717 858.067,525.272C865.46,534.3 878.855,537.416 891.448,533.118C902.431,529.371 909.481,519.572 909.653,507.024C909.867,491.372 909.707,475.715 909.736,460.06C909.753,450.89 915.528,446.76 924.268,449.654C928.655,451.107 929.79,454.682 929.824,458.744C929.909,468.736 929.866,478.728 929.88,488.72C929.893,497.542 930.409,506.434 928.8,515.132C924.744,537.07 908.424,551.434 885.986,553.186C869.952,554.439 855.572,550.733 844.004,538.855C840.466,535.223 838.009,530.893 835.793,525.957Z" style="fill:rgb(148,163,184);fill-rule:nonzero;"/>
    </g>
    <g transform="matrix(0.742325,0,0,0.742325,-112.904,-302.599)">
        <path d="M687.291,467.516C685.371,467.416 683.857,467.231 682.377,467.381C673.656,468.263 671.881,461.922 672.995,455.4C673.585,451.948 675.719,449.744 679.479,449.621C681.642,449.549 683.807,449.448 685.97,449.474C688.719,449.508 689.764,448.281 689.698,445.505C689.557,439.513 689.603,433.514 689.686,427.519C689.778,420.97 693.047,417.96 699.793,418.035C706.181,418.105 709.174,421.051 709.286,427.609C709.386,433.437 709.447,439.271 709.282,445.095C709.181,448.662 710.597,449.851 714.07,449.446C720.547,448.691 727.041,449.14 733.518,449.633C739.008,450.051 741.398,453.05 741.21,459.127C741.041,464.62 738.698,467.184 733.324,467.304C726.998,467.447 720.664,467.479 714.34,467.304C710.768,467.205 709.236,468.372 709.27,472.151C709.411,487.638 709.206,503.129 709.391,518.615C709.516,529.115 715.562,534.799 726.124,534.87C727.953,534.883 729.795,534.825 731.611,534.623C739.822,533.71 743.819,537.821 742.739,546.193C742.349,549.22 740.288,550.719 737.602,551.697C713.803,560.366 689.857,543.917 689.69,518.687C689.59,503.533 689.696,488.376 689.625,473.221C689.616,471.213 690.492,468.729 687.291,467.516Z" style="fill:rgb(148,163,184);fill-rule:nonzero;"/>
    </g>
    <g transform="matrix(0.742325,0,0,0.742325,-112.904,-302.599)">
        <path d="M757.672,517C757.669,497.503 757.651,478.505 757.67,459.508C757.678,451.696 759.559,449.676 766.72,449.59C774.819,449.494 776.944,451.443 777.253,459.238C777.291,460.19 777.365,461.141 777.479,463.018C782.653,456.844 788.247,452.629 795.248,450.387C799.943,448.884 804.697,448.378 809.547,448.726C815.064,449.122 817.502,452.462 817.176,458.851C816.869,464.858 814.589,467.221 809.056,467.269C790.56,467.428 779.839,477.235 778.109,495.471C776.641,510.938 777.591,526.439 777.355,541.923C777.214,551.173 769.98,555.668 761.693,551.454C758.662,549.912 757.655,547.241 757.665,543.996C757.691,535.164 757.673,526.332 757.672,517Z" style="fill:rgb(148,163,184);fill-rule:nonzero;"/>
    </g>
    <g transform="matrix(0.742325,0,0,0.742325,-112.904,-302.599)">
        <path d="M654.761,452.453C656.308,454.887 656.318,457.21 656.316,459.557C656.293,487.182 656.313,514.807 656.263,542.432C656.248,551.137 648.386,555.618 640.591,551.414C637.857,549.94 636.679,547.527 636.681,544.406C636.702,515.45 636.691,486.493 636.674,457.537C636.672,454.268 637.678,451.138 640.892,450.332C645.485,449.181 650.422,448.179 654.761,452.453Z" style="fill:rgb(148,163,184);fill-rule:nonzero;"/>
    </g>
    <g transform="matrix(0.742325,0,0,0.742325,-112.904,-302.599)">
        <path d="M636.266,417.469C641.89,411.984 647.119,410.986 652.685,414.069C657.383,416.671 659.978,422.093 658.931,427.12C657.344,434.732 650.021,439.077 642.596,436.81C635.433,434.624 632.062,427.278 634.902,419.996C635.203,419.226 635.658,418.517 636.266,417.469Z" style="fill:rgb(168,183,204);fill-rule:nonzero;"/>
    </g>
    <g transform="matrix(0.511398,0,0,0.947305,-30.5313,-25.093)">
        <path d="M274.21,28.756L190.618,28.756L66.477,175.976L154.708,176.01L274.21,28.756Z" style="fill:rgb(148,163,184);"/>
    </g>
    <g transform="matrix(-0.511398,0,0,0.947305,190.968,-25.1528)">
        <path d="M222.119,106.72L183.004,58.436L66.691,175.963L154.708,176.01L222.119,106.72Z" style="fill:rgb(168,183,204);"/>
    </g>
</svg>
